<mxfile host="app.diagrams.net" modified="2022-11-20T19:17:52.878Z" agent="5.0 (Windows NT 10.0; Win64; x64) AppleWebKit/537.36 (KHTML, like Gecko) Chrome/107.0.0.0 Safari/537.36" etag="tnnTJ1NSOeb7dNgupvkV" version="20.5.1" type="github">
  <diagram id="ZfVwMxeAOdC8WF4H4Zl5" name="Page-1">
    <mxGraphModel dx="1673" dy="887" grid="1" gridSize="10" guides="1" tooltips="1" connect="1" arrows="1" fold="1" page="1" pageScale="1" pageWidth="850" pageHeight="1100" math="0" shadow="0">
      <root>
        <mxCell id="0" />
        <mxCell id="1" parent="0" />
        <mxCell id="RDwfhd_h3WgD_-qNb8DA-1" value="COUNTRY" style="text;html=1;strokeColor=none;fillColor=none;align=center;verticalAlign=middle;whiteSpace=wrap;rounded=0;" vertex="1" parent="1">
          <mxGeometry x="80" y="20" width="60" height="30" as="geometry" />
        </mxCell>
        <mxCell id="RDwfhd_h3WgD_-qNb8DA-2" value="AlltimeGold" style="rounded=0;whiteSpace=wrap;html=1;" vertex="1" parent="1">
          <mxGeometry x="160" y="50" width="80" height="20" as="geometry" />
        </mxCell>
        <mxCell id="RDwfhd_h3WgD_-qNb8DA-3" value="CName" style="rounded=0;whiteSpace=wrap;html=1;fontStyle=4" vertex="1" parent="1">
          <mxGeometry x="80" y="50" width="80" height="20" as="geometry" />
        </mxCell>
        <mxCell id="RDwfhd_h3WgD_-qNb8DA-4" value="AlltimeSilver" style="rounded=0;whiteSpace=wrap;html=1;" vertex="1" parent="1">
          <mxGeometry x="240" y="50" width="80" height="20" as="geometry" />
        </mxCell>
        <mxCell id="RDwfhd_h3WgD_-qNb8DA-5" value="PARTICIPANT" style="text;html=1;strokeColor=none;fillColor=none;align=center;verticalAlign=middle;whiteSpace=wrap;rounded=0;" vertex="1" parent="1">
          <mxGeometry x="90" y="90" width="60" height="30" as="geometry" />
        </mxCell>
        <mxCell id="RDwfhd_h3WgD_-qNb8DA-7" value="&lt;u&gt;OlympicID&lt;/u&gt;" style="rounded=0;whiteSpace=wrap;html=1;" vertex="1" parent="1">
          <mxGeometry x="80" y="120" width="80" height="20" as="geometry" />
        </mxCell>
        <mxCell id="RDwfhd_h3WgD_-qNb8DA-8" value="Lname" style="rounded=0;whiteSpace=wrap;html=1;" vertex="1" parent="1">
          <mxGeometry x="160" y="120" width="80" height="20" as="geometry" />
        </mxCell>
        <mxCell id="RDwfhd_h3WgD_-qNb8DA-17" value="ATHLETE" style="text;html=1;strokeColor=none;fillColor=none;align=center;verticalAlign=middle;whiteSpace=wrap;rounded=0;" vertex="1" parent="1">
          <mxGeometry x="80" y="170" width="60" height="30" as="geometry" />
        </mxCell>
        <mxCell id="RDwfhd_h3WgD_-qNb8DA-18" value="Sex" style="rounded=0;whiteSpace=wrap;html=1;" vertex="1" parent="1">
          <mxGeometry x="160" y="200" width="80" height="20" as="geometry" />
        </mxCell>
        <mxCell id="RDwfhd_h3WgD_-qNb8DA-45" style="edgeStyle=orthogonalEdgeStyle;rounded=0;orthogonalLoop=1;jettySize=auto;html=1;entryX=0.5;entryY=1;entryDx=0;entryDy=0;" edge="1" parent="1" source="RDwfhd_h3WgD_-qNb8DA-19" target="RDwfhd_h3WgD_-qNb8DA-7">
          <mxGeometry relative="1" as="geometry">
            <Array as="points">
              <mxPoint x="120" y="230" />
              <mxPoint x="50" y="230" />
              <mxPoint x="50" y="170" />
              <mxPoint x="120" y="170" />
            </Array>
          </mxGeometry>
        </mxCell>
        <mxCell id="RDwfhd_h3WgD_-qNb8DA-19" value="OlympicID" style="rounded=0;whiteSpace=wrap;html=1;fontStyle=4" vertex="1" parent="1">
          <mxGeometry x="80" y="200" width="80" height="20" as="geometry" />
        </mxCell>
        <mxCell id="RDwfhd_h3WgD_-qNb8DA-21" value="Orientation" style="rounded=0;whiteSpace=wrap;html=1;" vertex="1" parent="1">
          <mxGeometry x="160" y="380" width="80" height="20" as="geometry" />
        </mxCell>
        <mxCell id="RDwfhd_h3WgD_-qNb8DA-46" style="edgeStyle=orthogonalEdgeStyle;rounded=0;orthogonalLoop=1;jettySize=auto;html=1;entryX=0.75;entryY=1;entryDx=0;entryDy=0;" edge="1" parent="1" source="RDwfhd_h3WgD_-qNb8DA-22" target="RDwfhd_h3WgD_-qNb8DA-7">
          <mxGeometry relative="1" as="geometry">
            <Array as="points">
              <mxPoint x="120" y="310" />
              <mxPoint x="30" y="310" />
              <mxPoint x="30" y="160" />
              <mxPoint x="140" y="160" />
            </Array>
          </mxGeometry>
        </mxCell>
        <mxCell id="RDwfhd_h3WgD_-qNb8DA-22" value="OlympicID" style="rounded=0;whiteSpace=wrap;html=1;fontStyle=4" vertex="1" parent="1">
          <mxGeometry x="80" y="380" width="80" height="20" as="geometry" />
        </mxCell>
        <mxCell id="RDwfhd_h3WgD_-qNb8DA-26" value="TEAM" style="text;html=1;strokeColor=none;fillColor=none;align=center;verticalAlign=middle;whiteSpace=wrap;rounded=0;" vertex="1" parent="1">
          <mxGeometry x="70" y="430" width="60" height="30" as="geometry" />
        </mxCell>
        <mxCell id="RDwfhd_h3WgD_-qNb8DA-29" value="Member1" style="rounded=0;whiteSpace=wrap;html=1;fontStyle=4" vertex="1" parent="1">
          <mxGeometry x="160" y="460" width="80" height="20" as="geometry" />
        </mxCell>
        <mxCell id="RDwfhd_h3WgD_-qNb8DA-31" value="TeamID" style="rounded=0;whiteSpace=wrap;html=1;fontStyle=4" vertex="1" parent="1">
          <mxGeometry x="80" y="460" width="80" height="20" as="geometry" />
        </mxCell>
        <mxCell id="RDwfhd_h3WgD_-qNb8DA-34" value="AlltimeBronze" style="rounded=0;whiteSpace=wrap;html=1;" vertex="1" parent="1">
          <mxGeometry x="320" y="50" width="80" height="20" as="geometry" />
        </mxCell>
        <mxCell id="RDwfhd_h3WgD_-qNb8DA-36" value="Fname" style="rounded=0;whiteSpace=wrap;html=1;" vertex="1" parent="1">
          <mxGeometry x="240" y="120" width="80" height="20" as="geometry" />
        </mxCell>
        <mxCell id="RDwfhd_h3WgD_-qNb8DA-38" style="edgeStyle=orthogonalEdgeStyle;rounded=0;orthogonalLoop=1;jettySize=auto;html=1;entryX=0.5;entryY=1;entryDx=0;entryDy=0;" edge="1" parent="1" source="RDwfhd_h3WgD_-qNb8DA-37" target="RDwfhd_h3WgD_-qNb8DA-3">
          <mxGeometry relative="1" as="geometry">
            <Array as="points">
              <mxPoint x="360" y="150" />
              <mxPoint x="430" y="150" />
              <mxPoint x="430" y="80" />
              <mxPoint x="120" y="80" />
            </Array>
          </mxGeometry>
        </mxCell>
        <mxCell id="RDwfhd_h3WgD_-qNb8DA-37" value="Country" style="rounded=0;whiteSpace=wrap;html=1;" vertex="1" parent="1">
          <mxGeometry x="320" y="120" width="80" height="20" as="geometry" />
        </mxCell>
        <mxCell id="RDwfhd_h3WgD_-qNb8DA-40" value="BirthYear" style="rounded=0;whiteSpace=wrap;html=1;" vertex="1" parent="1">
          <mxGeometry x="240" y="200" width="80" height="20" as="geometry" />
        </mxCell>
        <mxCell id="RDwfhd_h3WgD_-qNb8DA-41" value="FirstGames" style="rounded=0;whiteSpace=wrap;html=1;" vertex="1" parent="1">
          <mxGeometry x="320" y="200" width="80" height="20" as="geometry" />
        </mxCell>
        <mxCell id="RDwfhd_h3WgD_-qNb8DA-47" value="Member2" style="rounded=0;whiteSpace=wrap;html=1;fontStyle=4" vertex="1" parent="1">
          <mxGeometry x="240" y="460" width="80" height="20" as="geometry" />
        </mxCell>
        <mxCell id="RDwfhd_h3WgD_-qNb8DA-48" value="Member3" style="rounded=0;whiteSpace=wrap;html=1;fontStyle=4" vertex="1" parent="1">
          <mxGeometry x="320" y="460" width="80" height="20" as="geometry" />
        </mxCell>
        <mxCell id="RDwfhd_h3WgD_-qNb8DA-49" value="Member4" style="rounded=0;whiteSpace=wrap;html=1;fontStyle=4" vertex="1" parent="1">
          <mxGeometry x="400" y="460" width="80" height="20" as="geometry" />
        </mxCell>
        <mxCell id="RDwfhd_h3WgD_-qNb8DA-55" style="edgeStyle=orthogonalEdgeStyle;rounded=0;orthogonalLoop=1;jettySize=auto;html=1;entryX=0.25;entryY=1;entryDx=0;entryDy=0;" edge="1" parent="1" source="RDwfhd_h3WgD_-qNb8DA-50" target="RDwfhd_h3WgD_-qNb8DA-19">
          <mxGeometry relative="1" as="geometry">
            <Array as="points">
              <mxPoint x="520" y="500" />
              <mxPoint x="700" y="500" />
              <mxPoint x="700" y="270" />
              <mxPoint x="100" y="270" />
            </Array>
          </mxGeometry>
        </mxCell>
        <mxCell id="RDwfhd_h3WgD_-qNb8DA-50" value="Member5" style="rounded=0;whiteSpace=wrap;html=1;fontStyle=4" vertex="1" parent="1">
          <mxGeometry x="480" y="460" width="80" height="20" as="geometry" />
        </mxCell>
        <mxCell id="RDwfhd_h3WgD_-qNb8DA-54" style="edgeStyle=orthogonalEdgeStyle;rounded=0;orthogonalLoop=1;jettySize=auto;html=1;entryX=0.074;entryY=1.172;entryDx=0;entryDy=0;entryPerimeter=0;" edge="1" parent="1" source="RDwfhd_h3WgD_-qNb8DA-51" target="RDwfhd_h3WgD_-qNb8DA-19">
          <mxGeometry relative="1" as="geometry">
            <Array as="points">
              <mxPoint x="600" y="490" />
              <mxPoint x="660" y="490" />
              <mxPoint x="660" y="280" />
              <mxPoint x="86" y="280" />
            </Array>
          </mxGeometry>
        </mxCell>
        <mxCell id="RDwfhd_h3WgD_-qNb8DA-51" value="Member6" style="rounded=0;whiteSpace=wrap;html=1;fontStyle=4" vertex="1" parent="1">
          <mxGeometry x="560" y="460" width="80" height="20" as="geometry" />
        </mxCell>
        <mxCell id="RDwfhd_h3WgD_-qNb8DA-56" value="COACH" style="text;html=1;strokeColor=none;fillColor=none;align=center;verticalAlign=middle;whiteSpace=wrap;rounded=0;" vertex="1" parent="1">
          <mxGeometry x="70" y="350" width="60" height="30" as="geometry" />
        </mxCell>
        <mxCell id="RDwfhd_h3WgD_-qNb8DA-57" value="OlympicID" style="rounded=0;whiteSpace=wrap;html=1;fontStyle=4" vertex="1" parent="1">
          <mxGeometry x="80" y="380" width="80" height="20" as="geometry" />
        </mxCell>
        <mxCell id="RDwfhd_h3WgD_-qNb8DA-58" value="Orientation" style="rounded=0;whiteSpace=wrap;html=1;" vertex="1" parent="1">
          <mxGeometry x="160" y="380" width="80" height="20" as="geometry" />
        </mxCell>
        <mxCell id="RDwfhd_h3WgD_-qNb8DA-59" value="TEAM" style="text;html=1;strokeColor=none;fillColor=none;align=center;verticalAlign=middle;whiteSpace=wrap;rounded=0;" vertex="1" parent="1">
          <mxGeometry x="70" y="430" width="60" height="30" as="geometry" />
        </mxCell>
        <mxCell id="RDwfhd_h3WgD_-qNb8DA-60" value="TeamID" style="rounded=0;whiteSpace=wrap;html=1;fontStyle=4" vertex="1" parent="1">
          <mxGeometry x="80" y="460" width="80" height="20" as="geometry" />
        </mxCell>
        <mxCell id="RDwfhd_h3WgD_-qNb8DA-70" style="edgeStyle=orthogonalEdgeStyle;rounded=0;orthogonalLoop=1;jettySize=auto;html=1;entryX=0.85;entryY=1.069;entryDx=0;entryDy=0;entryPerimeter=0;" edge="1" parent="1" source="RDwfhd_h3WgD_-qNb8DA-61" target="RDwfhd_h3WgD_-qNb8DA-19">
          <mxGeometry relative="1" as="geometry">
            <Array as="points">
              <mxPoint x="200" y="540" />
              <mxPoint x="800" y="540" />
              <mxPoint x="800" y="230" />
              <mxPoint x="148" y="230" />
            </Array>
          </mxGeometry>
        </mxCell>
        <mxCell id="RDwfhd_h3WgD_-qNb8DA-61" value="Member1" style="rounded=0;whiteSpace=wrap;html=1;fontStyle=4" vertex="1" parent="1">
          <mxGeometry x="160" y="460" width="80" height="20" as="geometry" />
        </mxCell>
        <mxCell id="RDwfhd_h3WgD_-qNb8DA-69" style="edgeStyle=orthogonalEdgeStyle;rounded=0;orthogonalLoop=1;jettySize=auto;html=1;entryX=0.75;entryY=1;entryDx=0;entryDy=0;" edge="1" parent="1" source="RDwfhd_h3WgD_-qNb8DA-62" target="RDwfhd_h3WgD_-qNb8DA-19">
          <mxGeometry relative="1" as="geometry">
            <Array as="points">
              <mxPoint x="280" y="530" />
              <mxPoint x="780" y="530" />
              <mxPoint x="780" y="240" />
              <mxPoint x="140" y="240" />
            </Array>
          </mxGeometry>
        </mxCell>
        <mxCell id="RDwfhd_h3WgD_-qNb8DA-62" value="Member2" style="rounded=0;whiteSpace=wrap;html=1;fontStyle=4" vertex="1" parent="1">
          <mxGeometry x="240" y="460" width="80" height="20" as="geometry" />
        </mxCell>
        <mxCell id="RDwfhd_h3WgD_-qNb8DA-68" style="edgeStyle=orthogonalEdgeStyle;rounded=0;orthogonalLoop=1;jettySize=auto;html=1;entryX=0.625;entryY=1.138;entryDx=0;entryDy=0;entryPerimeter=0;" edge="1" parent="1" source="RDwfhd_h3WgD_-qNb8DA-63" target="RDwfhd_h3WgD_-qNb8DA-19">
          <mxGeometry relative="1" as="geometry">
            <Array as="points">
              <mxPoint x="360" y="520" />
              <mxPoint x="750" y="520" />
              <mxPoint x="750" y="250" />
              <mxPoint x="130" y="250" />
            </Array>
          </mxGeometry>
        </mxCell>
        <mxCell id="RDwfhd_h3WgD_-qNb8DA-63" value="Member3" style="rounded=0;whiteSpace=wrap;html=1;fontStyle=4" vertex="1" parent="1">
          <mxGeometry x="320" y="460" width="80" height="20" as="geometry" />
        </mxCell>
        <mxCell id="RDwfhd_h3WgD_-qNb8DA-67" style="edgeStyle=orthogonalEdgeStyle;rounded=0;orthogonalLoop=1;jettySize=auto;html=1;entryX=0.427;entryY=1.103;entryDx=0;entryDy=0;entryPerimeter=0;" edge="1" parent="1" source="RDwfhd_h3WgD_-qNb8DA-64" target="RDwfhd_h3WgD_-qNb8DA-19">
          <mxGeometry relative="1" as="geometry">
            <Array as="points">
              <mxPoint x="440" y="510" />
              <mxPoint x="740" y="510" />
              <mxPoint x="740" y="260" />
              <mxPoint x="114" y="260" />
            </Array>
          </mxGeometry>
        </mxCell>
        <mxCell id="RDwfhd_h3WgD_-qNb8DA-64" value="Member4" style="rounded=0;whiteSpace=wrap;html=1;fontStyle=4" vertex="1" parent="1">
          <mxGeometry x="400" y="460" width="80" height="20" as="geometry" />
        </mxCell>
        <mxCell id="RDwfhd_h3WgD_-qNb8DA-65" value="Member5" style="rounded=0;whiteSpace=wrap;html=1;fontStyle=4" vertex="1" parent="1">
          <mxGeometry x="480" y="460" width="80" height="20" as="geometry" />
        </mxCell>
        <mxCell id="RDwfhd_h3WgD_-qNb8DA-71" value="EventDate" style="rounded=0;whiteSpace=wrap;html=1;" vertex="1" parent="1">
          <mxGeometry x="160" y="580" width="80" height="20" as="geometry" />
        </mxCell>
        <mxCell id="RDwfhd_h3WgD_-qNb8DA-72" value="EventID" style="rounded=0;whiteSpace=wrap;html=1;fontStyle=4" vertex="1" parent="1">
          <mxGeometry x="80" y="580" width="80" height="20" as="geometry" />
        </mxCell>
        <mxCell id="RDwfhd_h3WgD_-qNb8DA-73" value="Location" style="rounded=0;whiteSpace=wrap;html=1;" vertex="1" parent="1">
          <mxGeometry x="240" y="580" width="80" height="20" as="geometry" />
        </mxCell>
        <mxCell id="RDwfhd_h3WgD_-qNb8DA-75" value="EVENT_SCHEDULE" style="text;html=1;strokeColor=none;fillColor=none;align=center;verticalAlign=middle;whiteSpace=wrap;rounded=0;" vertex="1" parent="1">
          <mxGeometry x="110" y="550" width="60" height="30" as="geometry" />
        </mxCell>
        <mxCell id="RDwfhd_h3WgD_-qNb8DA-81" style="edgeStyle=orthogonalEdgeStyle;rounded=0;orthogonalLoop=1;jettySize=auto;html=1;entryX=0.25;entryY=1;entryDx=0;entryDy=0;" edge="1" parent="1" source="RDwfhd_h3WgD_-qNb8DA-76" target="RDwfhd_h3WgD_-qNb8DA-7">
          <mxGeometry relative="1" as="geometry">
            <Array as="points">
              <mxPoint x="200" y="690" />
              <mxPoint x="20" y="690" />
              <mxPoint x="20" y="150" />
              <mxPoint x="100" y="150" />
            </Array>
          </mxGeometry>
        </mxCell>
        <mxCell id="RDwfhd_h3WgD_-qNb8DA-76" value="&lt;u&gt;Olympian&lt;/u&gt;" style="rounded=0;whiteSpace=wrap;html=1;" vertex="1" parent="1">
          <mxGeometry x="160" y="650" width="80" height="20" as="geometry" />
        </mxCell>
        <mxCell id="RDwfhd_h3WgD_-qNb8DA-80" style="edgeStyle=orthogonalEdgeStyle;rounded=0;orthogonalLoop=1;jettySize=auto;html=1;entryX=0.5;entryY=1;entryDx=0;entryDy=0;" edge="1" parent="1" source="RDwfhd_h3WgD_-qNb8DA-77" target="RDwfhd_h3WgD_-qNb8DA-72">
          <mxGeometry relative="1" as="geometry">
            <Array as="points">
              <mxPoint x="120" y="680" />
              <mxPoint x="40" y="680" />
              <mxPoint x="40" y="620" />
              <mxPoint x="120" y="620" />
            </Array>
          </mxGeometry>
        </mxCell>
        <mxCell id="RDwfhd_h3WgD_-qNb8DA-77" value="EventID" style="rounded=0;whiteSpace=wrap;html=1;fontStyle=4" vertex="1" parent="1">
          <mxGeometry x="80" y="650" width="80" height="20" as="geometry" />
        </mxCell>
        <mxCell id="RDwfhd_h3WgD_-qNb8DA-78" value="Medal" style="rounded=0;whiteSpace=wrap;html=1;" vertex="1" parent="1">
          <mxGeometry x="240" y="650" width="80" height="20" as="geometry" />
        </mxCell>
        <mxCell id="RDwfhd_h3WgD_-qNb8DA-79" value="INDIVIDUAL_RESULTS" style="text;html=1;strokeColor=none;fillColor=none;align=center;verticalAlign=middle;whiteSpace=wrap;rounded=0;" vertex="1" parent="1">
          <mxGeometry x="120" y="620" width="60" height="30" as="geometry" />
        </mxCell>
        <mxCell id="RDwfhd_h3WgD_-qNb8DA-87" style="edgeStyle=orthogonalEdgeStyle;rounded=0;orthogonalLoop=1;jettySize=auto;html=1;entryX=0.5;entryY=1;entryDx=0;entryDy=0;" edge="1" parent="1" source="RDwfhd_h3WgD_-qNb8DA-82" target="RDwfhd_h3WgD_-qNb8DA-60">
          <mxGeometry relative="1" as="geometry">
            <Array as="points">
              <mxPoint x="200" y="780" />
              <mxPoint x="340" y="780" />
              <mxPoint x="340" y="550" />
              <mxPoint x="120" y="550" />
            </Array>
          </mxGeometry>
        </mxCell>
        <mxCell id="RDwfhd_h3WgD_-qNb8DA-82" value="&lt;u&gt;Team&lt;/u&gt;" style="rounded=0;whiteSpace=wrap;html=1;" vertex="1" parent="1">
          <mxGeometry x="160" y="750" width="80" height="20" as="geometry" />
        </mxCell>
        <mxCell id="RDwfhd_h3WgD_-qNb8DA-86" style="edgeStyle=orthogonalEdgeStyle;rounded=0;orthogonalLoop=1;jettySize=auto;html=1;entryX=0.25;entryY=1;entryDx=0;entryDy=0;" edge="1" parent="1" source="RDwfhd_h3WgD_-qNb8DA-83" target="RDwfhd_h3WgD_-qNb8DA-72">
          <mxGeometry relative="1" as="geometry">
            <Array as="points">
              <mxPoint x="120" y="780" />
              <mxPoint x="30" y="780" />
              <mxPoint x="30" y="610" />
              <mxPoint x="100" y="610" />
            </Array>
          </mxGeometry>
        </mxCell>
        <mxCell id="RDwfhd_h3WgD_-qNb8DA-83" value="EventID" style="rounded=0;whiteSpace=wrap;html=1;fontStyle=4" vertex="1" parent="1">
          <mxGeometry x="80" y="750" width="80" height="20" as="geometry" />
        </mxCell>
        <mxCell id="RDwfhd_h3WgD_-qNb8DA-84" value="Medal" style="rounded=0;whiteSpace=wrap;html=1;" vertex="1" parent="1">
          <mxGeometry x="240" y="750" width="80" height="20" as="geometry" />
        </mxCell>
        <mxCell id="RDwfhd_h3WgD_-qNb8DA-85" value="TEAM_RESULTS" style="text;html=1;strokeColor=none;fillColor=none;align=center;verticalAlign=middle;whiteSpace=wrap;rounded=0;" vertex="1" parent="1">
          <mxGeometry x="100" y="720" width="60" height="30" as="geometry" />
        </mxCell>
      </root>
    </mxGraphModel>
  </diagram>
</mxfile>
